<svg width="1440" height="914" viewBox="0 0 1440 914" fill="none" xmlns="http://www.w3.org/2000/svg">
<g clip-path="url(#clip0_2_195)">
<rect width="1440" height="914" fill="white"/>
<path d="M0 244.235C116.668 283.509 305.231 325.347 443.346 283.783C651.274 221.21 827.213 19.0178 1133.61 82.0165C1256.25 107.234 1360.07 152.189 1440 198.122" stroke="#590D56"/>
<path d="M0 397.058C116.668 389.407 305.231 381.257 443.346 389.354C651.274 401.544 827.213 440.932 1133.61 428.659C1256.25 423.747 1360.07 414.989 1440 406.041" stroke="#590D56"/>
<path d="M0 710.29C116.668 721.851 305.231 734.167 443.346 721.932C651.274 703.512 827.213 643.992 1133.61 662.537C1256.25 669.961 1360.07 683.194 1440 696.716" stroke="#590D56"/>
<path d="M0 488.529C116.668 509.611 305.231 532.069 443.346 509.758C651.274 476.169 827.213 367.633 1133.61 401.45C1256.25 414.987 1360.07 439.119 1440 463.775" stroke="#590D56"/>
<path d="M0 629.335C116.668 602.812 305.231 574.558 443.346 602.627C651.274 644.884 827.213 781.43 1133.61 738.885C1256.25 721.855 1360.07 691.495 1440 660.476" stroke="#590D56"/>
</g>
<defs>
<clipPath id="clip0_2_195">
<rect width="1440" height="914" fill="white"/>
</clipPath>
</defs>
</svg>
